<?xml version="1.0" encoding="utf-8"?>
<!-- Generator: Adobe Illustrator 14.0.0, SVG Export Plug-In . SVG Version: 6.00 Build 43363)  -->
<!DOCTYPE svg PUBLIC "-//W3C//DTD SVG 1.1 Tiny//EN" "http://www.w3.org/Graphics/SVG/1.1/DTD/svg11-tiny.dtd">
<svg version="1.1" baseProfile="tiny" id="Layer_1" xmlns="http://www.w3.org/2000/svg" xmlns:xlink="http://www.w3.org/1999/xlink"
	 x="0px" y="0px" width="41px" height="41px" viewBox="0 0 41 41" xml:space="preserve">
<g>
	<path fill="#333333" d="M9.656,34.75h16.756l4.244-4.244v-11.74l-3.039,0.053l-3.211-2.066l-0.75,3.998l5.012,9.915h-2.994
		l-5.094-9.768l-2.924,5.853h-3.921v3.921L9.656,34.75z M24.656,12.75l4,4h2v-10H13.735v17h1.921l4-8l-3,3l-1.917-1.748l3.917-4.252
		H24.656z M24.381,7.808c1.227,0,2.221,0.995,2.221,2.222s-0.994,2.222-2.221,2.222s-2.222-0.995-2.222-2.222
		S23.154,7.808,24.381,7.808z M10.656,26.75h3.079v-3h-1.079L10.656,26.75z"/>
</g>
</svg>
