<?xml version="1.0" encoding="utf-8"?>
<!-- Generator: Adobe Illustrator 14.0.0, SVG Export Plug-In . SVG Version: 6.00 Build 43363)  -->
<!DOCTYPE svg PUBLIC "-//W3C//DTD SVG 1.1//EN" "http://www.w3.org/Graphics/SVG/1.1/DTD/svg11.dtd">
<svg version="1.1" id="Layer_1" xmlns="http://www.w3.org/2000/svg" xmlns:xlink="http://www.w3.org/1999/xlink" x="0px" y="0px"
	 width="41px" height="41px" viewBox="0 0 41 41" enable-background="new 0 0 41 41" xml:space="preserve">
<g>
	<path fill="#333333" d="M20.5,7.498c-7.18,0-13,5.82-13,13c0,7.182,5.82,13.001,13,13.001c7.178,0,13-5.819,13-13.001
		C33.5,13.318,27.678,7.498,20.5,7.498z M20.5,30.499c-5.514,0-10-4.485-10-10.001c0-5.513,4.486-10,10-10s10,4.487,10,10
		C30.5,26.014,26.014,30.499,20.5,30.499z"/>
	<path fill="#333333" d="M14.843,26.153l7.78-3.534l3.535-7.777l-7.777,3.535L14.843,26.153z M21.914,21.912l-5.657,2.827
		l2.829-5.657L21.914,21.912z"/>
</g>
</svg>
