<?xml version="1.0" encoding="utf-8"?>
<!-- Generator: Adobe Illustrator 14.0.0, SVG Export Plug-In . SVG Version: 6.00 Build 43363)  -->
<!DOCTYPE svg PUBLIC "-//W3C//DTD SVG 1.1 Tiny//EN" "http://www.w3.org/Graphics/SVG/1.1/DTD/svg11-tiny.dtd">
<svg version="1.1" baseProfile="tiny" id="Layer_1" xmlns="http://www.w3.org/2000/svg" xmlns:xlink="http://www.w3.org/1999/xlink"
	 x="0px" y="0px" width="16px" height="16px" viewBox="0 0 16 16" xml:space="preserve">
<rect x="0.832" y="0.832" fill="#FFFFFF" width="14.336" height="14.336"/>
<path fill="#99ABCF" d="M14.145,0.832H0.832v0.512v0.512v12.289v1.023h1.024h13.312v-0.512v-0.512V1.856V0.832H14.145z
	 M14.145,14.145H1.856V1.856h12.289V14.145z"/>
<rect x="2.88" y="2.88" fill="#7D9BD0" width="10.24" height="7.168"/>
<rect x="2.88" y="10.048" fill="#77AC4D" width="10.24" height="1.024"/>
<rect x="2.88" y="11.072" fill="#C3DFC1" width="10.24" height="2.048"/>
<path fill="#CFA059" d="M6.083,9.815L6.08,9.792C6.08,9.8,6.082,9.808,6.083,9.815z"/>
<path fill="#CFA059" d="M9.664,9.792L9.66,9.815C9.663,9.808,9.664,9.8,9.664,9.792z"/>
<path fill="#7F8457" d="M8,10.059c1.089,0,1.979-0.182,2.044-0.412l0.004-0.026c0-0.243-0.917-0.439-2.048-0.439
	S5.952,9.377,5.952,9.62l0.004,0.026C6.021,9.877,6.912,10.059,8,10.059z"/>
<circle fill="#A6D285" cx="8" cy="6.592" r="3.072"/>
<path fill="#CFA059" d="M8,10.059c-1.088,0-1.979-0.182-2.044-0.412l0.386,2.606c0,0.196,0.742,0.355,1.658,0.355
	s1.658-0.159,1.658-0.355l0.386-2.606C9.979,9.877,9.089,10.059,8,10.059z"/>
</svg>
