<?xml version="1.0" encoding="utf-8"?>
<!-- Generator: Adobe Illustrator 14.0.0, SVG Export Plug-In . SVG Version: 6.00 Build 43363)  -->
<!DOCTYPE svg PUBLIC "-//W3C//DTD SVG 1.1 Tiny//EN" "http://www.w3.org/Graphics/SVG/1.1/DTD/svg11-tiny.dtd">
<svg version="1.1" baseProfile="tiny" id="Layer_1" xmlns="http://www.w3.org/2000/svg" xmlns:xlink="http://www.w3.org/1999/xlink"
	 x="0px" y="0px" width="41px" height="41px" viewBox="0 0 41 41" xml:space="preserve">
<path fill="#333333" d="M32.246,19.024C32.191,14.584,28.578,11,24.125,11c-3.488,0-6.456,2.202-7.607,5.29
	c-0.682-0.93-1.775-1.54-3.019-1.54c-2.072,0-3.75,1.677-3.75,3.75c0,0.171,0.029,0.334,0.051,0.5C7.567,19.952,6,22.167,6,24.75
	C6,28.2,8.8,31,12.25,31H20v-6h-4l5.533-6.752L27,25h-4v6h6.75c3.451,0,6.25-2.8,6.25-6.25C36,22.187,34.453,19.989,32.246,19.024z"
	/>
</svg>
